HIERARCHY
ROOT Hips
{
	OFFSET -0.001795 -0.223333 0.028219
	CHANNELS 6 Xposition Yposition Zposition Zrotation Yrotation Xrotation 
	JOINT LeftUpLeg
	{
		OFFSET 0.069520 -0.091406 -0.006815
		CHANNELS 3 Zrotation Yrotation Xrotation
		JOINT LeftLeg
		{
			OFFSET 0.034277 -0.375199 -0.004496
			CHANNELS 3 Zrotation Yrotation Xrotation
			JOINT LeftFoot
			{
				OFFSET -0.013596 -0.397961 -0.043693
				CHANNELS 3 Zrotation Yrotation Xrotation
				JOINT LeftToe
				{
					OFFSET 0.026358 -0.055791 0.119288
					CHANNELS 3 Zrotation Yrotation Xrotation
					End Site
					{
						OFFSET 0.000000 0.000000 0.000000
					}
				}
			}
		}
	}
	JOINT RightUpLeg
	{
		OFFSET -0.067670 -0.090522 -0.004320
		CHANNELS 3 Zrotation Yrotation Xrotation
		JOINT RightLeg
		{
			OFFSET -0.038290 -0.382569 -0.008850
			CHANNELS 3 Zrotation Yrotation Xrotation
			JOINT RightFoot
			{
				OFFSET 0.015774 -0.398415 -0.042312
				CHANNELS 3 Zrotation Yrotation Xrotation
				JOINT RightToe
				{
					OFFSET -0.025372 -0.048144 0.123348
					CHANNELS 3 Zrotation Yrotation Xrotation
					End Site
					{
						OFFSET 0.000000 0.000000 0.000000
					}
				}
			}
		}
	}
	JOINT Spine
	{
		OFFSET -0.002533 0.108963 -0.026696
		CHANNELS 3 Zrotation Yrotation Xrotation
		JOINT Spine1
		{
			OFFSET 0.005487 0.135180 0.001092
			CHANNELS 3 Zrotation Yrotation Xrotation
			JOINT Spine2
			{
				OFFSET 0.001457 0.052922 0.025425
				CHANNELS 3 Zrotation Yrotation Xrotation
				JOINT Neck
				{
					OFFSET -0.002778 0.213870 -0.042857
					CHANNELS 3 Zrotation Yrotation Xrotation
					JOINT Head
					{
						OFFSET 0.005152 0.064970 0.051349
						CHANNELS 3 Zrotation Yrotation Xrotation
						End Site
						{
							OFFSET 0.000000 0.000000 0.000000
						}
					}
				}
				JOINT LeftShoulder
				{
					OFFSET 0.078845 0.121749 -0.034090
					CHANNELS 3 Zrotation Yrotation Xrotation
					JOINT LeftArm
					{
						OFFSET 0.090977 0.030469 -0.008868
						CHANNELS 3 Zrotation Yrotation Xrotation
						JOINT LeftForeArm
						{
							OFFSET 0.259612 -0.012772 -0.027456
							CHANNELS 3 Zrotation Yrotation Xrotation
							JOINT LeftHand
							{
								OFFSET 0.249234 0.008986 -0.001171
								CHANNELS 3 Zrotation Yrotation Xrotation
								End Site
								{
									OFFSET 0.000000 0.000000 0.000000
								}
							}
						}
					}
				}
				JOINT RightShoulder
				{
					OFFSET -0.081759 0.118833 -0.038615
					CHANNELS 3 Zrotation Yrotation Xrotation
					JOINT RightArm
					{
						OFFSET -0.096012 0.032551 -0.009143
						CHANNELS 3 Zrotation Yrotation Xrotation
						JOINT RightForeArm
						{
							OFFSET -0.253742 -0.013329 -0.021401
							CHANNELS 3 Zrotation Yrotation Xrotation
							JOINT RightHand
							{
								OFFSET -0.255298 0.007772 -0.005559
								CHANNELS 3 Zrotation Yrotation Xrotation
								End Site
								{
									OFFSET 0.000000 0.000000 0.000000
								}
							}
						}
					}
				}
			}
		}
	}
}
MOTION
Frames: 13
Frame Time: 0.050000
0.023709 0.950062 0.018015 -1.952730 6.070065 0.413721 4.072600 -0.174855 -1.375902 -3.499718 0.340610 -1.569863 6.900229 15.790728 10.220062 0.000000 0.000000 0.000000 -1.473653 0.572252 -6.337268 2.701113 -0.278822 4.396239 0.848142 -1.557719 9.207516 0.000000 0.000000 0.000000 2.536660 -1.938970 24.280571 -9.575401 2.956975 -24.265365 -7.342320 -0.797213 28.701053 3.183078 -0.490608 -19.850802 0.000000 0.000000 0.000000 -15.120484 -21.534595 9.348257 -38.535746 -28.613343 2.215624 12.269953 -31.392470 -2.096563 0.000000 0.000000 0.000000 26.054884 -0.946633 -1.134241 63.750489 10.055311 -3.676185 17.952752 38.140571 8.831345 0.000000 0.000000 0.000000 
0.023919 0.949545 0.019920 -1.932103 6.096724 0.044689 4.196578 -0.145743 -0.824675 -3.820430 0.366145 -2.003199 6.977763 15.917396 10.301014 0.000000 0.000000 0.000000 -1.660755 0.493296 -5.502012 2.853292 -0.307609 3.838437 0.528955 -2.169342 9.060172 0.000000 0.000000 0.000000 2.490240 -1.950433 24.524703 -9.830068 3.045573 -23.938802 -6.279338 1.634753 28.632434 4.316091 -0.877929 -19.509783 0.000000 0.000000 0.000000 -15.925304 -18.161419 7.197263 -40.236986 -23.158357 0.701552 7.628119 -32.921729 -0.996929 0.000000 0.000000 0.000000 26.759150 -1.267958 -0.478253 62.590496 11.357260 -3.154039 16.460901 37.082859 8.267600 0.000000 0.000000 0.000000 
0.024164 0.948416 0.021307 -1.692959 6.407024 0.452521 3.757481 -0.143842 -0.855892 -3.645471 0.350474 -2.448924 7.212045 16.226426 9.846191 0.000000 0.000000 0.000000 -2.065476 0.475715 -5.475169 2.972547 -0.332636 3.210126 0.175998 -2.687498 8.490920 0.000000 0.000000 0.000000 2.205404 -1.884493 24.339444 -9.687562 3.006613 -23.972107 -5.413989 3.943885 28.697316 5.148699 -1.042255 -19.375555 0.000000 0.000000 0.000000 -15.958902 -15.098592 5.091596 -42.421305 -17.783033 -0.890132 4.498551 -32.403707 -0.236677 0.000000 0.000000 0.000000 27.124006 -1.650021 0.183920 61.403563 12.076044 -2.991309 16.207272 37.421528 8.522410 0.000000 0.000000 0.000000 
0.024479 0.947560 0.021893 -1.805973 7.482847 0.455093 3.938234 -0.173657 -1.200465 -3.692824 0.344049 -2.207461 7.044274 15.892052 9.085429 0.000000 0.000000 0.000000 -1.707118 0.475850 -5.353583 2.778291 -0.312539 3.352913 -0.659863 -4.223190 8.113851 0.000000 0.000000 0.000000 2.343815 -2.021258 24.769103 -9.605995 2.984723 -24.121113 -4.473751 5.525413 28.418378 5.696444 -1.011217 -19.654850 0.000000 0.000000 0.000000 -16.121499 -12.508111 3.254733 -44.897761 -13.297400 -2.339773 2.900612 -30.986378 0.076731 0.000000 0.000000 0.000000 27.539920 -2.183549 0.605470 60.175285 12.209065 -3.090322 16.251727 37.498523 8.725480 0.000000 0.000000 0.000000 
0.025127 0.947676 0.021939 -1.730975 8.177228 0.628076 3.587581 -0.202705 -1.756692 -3.376187 0.314650 -1.795521 6.811838 15.592990 9.280675 0.000000 0.000000 0.000000 -2.009107 0.481403 -5.612051 3.011501 -0.355187 3.507345 -0.891948 -4.566096 7.809445 0.000000 0.000000 0.000000 2.508775 -2.122965 24.991935 -9.624704 2.948833 -24.700109 -4.001170 6.948409 28.641560 6.177161 -0.964941 -20.131940 0.000000 0.000000 0.000000 -15.953425 -10.925447 2.049707 -46.325615 -10.331290 -3.434117 2.599063 -29.059266 0.044928 0.000000 0.000000 0.000000 28.026912 -2.884248 0.827119 59.608539 12.393250 -3.202698 15.724429 38.094739 8.906024 0.000000 0.000000 0.000000 
0.025907 0.947427 0.021572 -1.732452 9.108152 0.570493 3.429189 -0.216247 -1.962527 -3.074620 0.284068 -1.460953 6.546872 15.152022 8.927130 0.000000 0.000000 0.000000 -1.950317 0.480718 -5.631433 3.124330 -0.383011 3.782444 -1.317352 -5.355865 7.692506 0.000000 0.000000 0.000000 2.540422 -2.215431 25.268178 -9.606468 2.926192 -25.019173 -3.330235 7.613872 28.596647 6.197896 -0.768982 -20.240298 0.000000 0.000000 0.000000 -15.515969 -9.851640 1.282307 -47.568788 -8.326840 -4.252519 2.413206 -28.743003 0.008166 0.000000 0.000000 0.000000 28.442919 -3.390079 0.933138 58.861416 12.132763 -3.474790 15.376525 38.261217 8.927712 0.000000 0.000000 0.000000 
0.026654 0.947690 0.021033 -1.573723 10.166568 0.520082 3.278892 -0.249083 -2.486424 -2.979691 0.266935 -1.081516 5.835299 14.063094 8.819129 0.000000 0.000000 0.000000 -2.293336 0.442011 -5.417453 3.333863 -0.430108 3.909760 -1.710983 -6.069246 7.533669 0.000000 0.000000 0.000000 2.576948 -2.258665 25.050944 -9.891747 2.995932 -25.000361 -3.038122 7.738897 28.535006 6.042404 -0.578684 -20.079992 0.000000 0.000000 0.000000 -15.448515 -9.120697 0.755381 -47.656853 -7.917941 -4.373963 1.927815 -28.397231 0.073810 0.000000 0.000000 0.000000 28.302314 -3.804286 0.909183 58.619649 11.817998 -3.667541 15.296183 38.989233 9.203288 0.000000 0.000000 0.000000 
0.026977 0.947711 0.020390 -1.434075 11.079742 0.468316 2.997911 -0.240595 -2.364628 -2.874998 0.256685 -1.468659 5.432500 13.618056 9.438828 0.000000 0.000000 0.000000 -2.490974 0.401204 -5.077481 3.377294 -0.448128 3.797858 -2.086592 -6.767479 7.363883 0.000000 0.000000 0.000000 2.611538 -2.302686 24.926771 -10.205326 3.065247 -25.018911 -2.962226 8.025093 28.465135 6.556909 -0.735156 -20.477744 0.000000 0.000000 0.000000 -14.851329 -9.802490 0.981584 -47.363577 -9.466752 -3.754737 2.493334 -28.619295 -0.138189 0.000000 0.000000 0.000000 27.755292 -4.040643 0.992904 59.235533 11.794529 -3.611952 15.206503 39.498661 9.432978 0.000000 0.000000 0.000000 
0.026848 0.947523 0.019572 -1.554244 11.863331 0.215680 3.318737 -0.246222 -2.327659 -3.073589 0.263647 -1.311046 5.193179 13.182321 9.038409 0.000000 0.000000 0.000000 -2.458935 0.369057 -4.706597 3.643287 -0.503015 3.663770 -2.476321 -7.525842 7.234750 0.000000 0.000000 0.000000 2.540085 -2.331472 24.927653 -10.356702 3.098116 -25.060118 -2.950597 8.301962 28.293560 6.909471 -0.844471 -20.549560 0.000000 0.000000 0.000000 -14.409156 -10.042682 0.988833 -46.752073 -10.895659 -3.142433 2.450730 -29.486304 -0.217383 0.000000 0.000000 0.000000 27.270472 -4.262963 1.037613 59.746761 11.809656 -3.516625 15.487209 39.837904 9.731318 0.000000 0.000000 0.000000 
0.026134 0.947423 0.018599 -1.594063 12.141257 -0.005808 3.468834 -0.246508 -2.282979 -3.366176 0.279802 -0.999900 4.961782 12.858313 9.135408 0.000000 0.000000 0.000000 -2.284296 0.358986 -4.506935 3.536080 -0.488589 3.662340 -2.506881 -7.592190 7.400613 0.000000 0.000000 0.000000 2.100645 -2.286735 25.289824 -10.183802 3.029676 -25.482080 -3.168739 8.447439 28.515945 7.589771 -1.101570 -21.434734 0.000000 0.000000 0.000000 -14.109539 -10.764587 1.313644 -45.569156 -12.699854 -2.422179 3.224701 -30.704273 -0.493711 0.000000 0.000000 0.000000 27.198890 -4.245022 1.160664 59.910301 12.367954 -3.255925 15.477893 40.116078 9.867417 0.000000 0.000000 0.000000 
0.025085 0.947057 0.017422 -1.925390 12.055638 -0.261169 3.902641 -0.248301 -2.184583 -3.408740 0.282968 -0.886796 5.104421 13.125567 9.327716 0.000000 0.000000 0.000000 -1.875198 0.378049 -4.517168 3.642158 -0.508201 3.869183 -2.291801 -7.119509 7.298679 0.000000 0.000000 0.000000 1.715621 -2.232092 25.608172 -10.118119 3.048652 -25.170726 -3.616896 8.039130 28.082892 7.912907 -1.280602 -22.043229 0.000000 0.000000 0.000000 -13.810671 -11.495458 1.781876 -44.470009 -14.419288 -1.739016 4.553031 -32.566236 -0.932343 0.000000 0.000000 0.000000 26.420469 -3.730090 1.259217 60.567295 12.703206 -2.871523 15.644126 40.135756 9.873816 0.000000 0.000000 0.000000 
0.023914 0.946927 0.016333 -1.895303 10.787928 -0.399309 4.051809 -0.251399 -2.369164 -3.590890 0.304730 -0.353697 5.453109 13.644527 9.469872 0.000000 0.000000 0.000000 -1.665642 0.386492 -4.453262 3.591305 -0.483235 3.862106 -1.540568 -5.640616 7.470933 0.000000 0.000000 0.000000 1.005885 -1.997783 25.731218 -10.143309 3.080709 -24.880114 -4.364150 8.028090 27.667067 7.836305 -1.143266 -23.160036 0.000000 0.000000 0.000000 -13.736702 -12.230246 2.278750 -42.821633 -16.134863 -1.088241 6.642217 -34.439353 -1.631078 0.000000 0.000000 0.000000 26.552085 -3.585955 1.125051 60.841344 12.647971 -2.845565 16.990139 40.871283 10.603466 0.000000 0.000000 0.000000 
0.022685 0.946891 0.015209 -2.063977 9.707652 -0.506216 4.247447 -0.238170 -2.209115 -3.720701 0.324169 -0.249807 5.821505 14.267205 9.958535 0.000000 0.000000 0.000000 -1.032092 0.417292 -4.477789 3.113121 -0.389990 3.592602 -1.274734 -5.195981 7.616279 0.000000 0.000000 0.000000 0.427609 -1.808168 25.849562 -9.910845 3.040274 -24.736978 -5.386150 7.346790 27.202675 7.610440 -1.019907 -24.231628 0.000000 0.000000 0.000000 -13.213310 -13.385984 3.119907 -41.138111 -17.732020 -0.569142 9.555683 -35.225021 -2.525194 0.000000 0.000000 0.000000 26.567160 -3.231916 0.928783 60.750755 12.525008 -2.820879 18.288354 41.491978 11.194948 0.000000 0.000000 0.000000 
